<?xml version="1.0" standalone="no"?>
<!DOCTYPE svg PUBLIC "-//W3C//DTD SVG 20010904//EN"
 "http://www.w3.org/TR/2001/REC-SVG-20010904/DTD/svg10.dtd">
<svg version="1.0" xmlns="http://www.w3.org/2000/svg"
 width="285.000000pt" height="244.000000pt" viewBox="0 0 285.000000 244.000000"
 preserveAspectRatio="xMidYMid meet">

<g transform="translate(0.000000,244.000000) scale(0.100000,-0.100000)"
fill="#000000" stroke="none">
<path d="M1230 2297 c-19 -6 -37 -13 -40 -16 -3 -3 -23 -7 -45 -8 -22 -2 -46
-5 -52 -8 -20 -7 -15 -41 8 -67 21 -24 79 -152 79 -175 0 -20 48 -16 54 5 2 9
7 42 11 72 8 70 26 152 37 165 12 14 9 45 -4 44 -7 -1 -29 -6 -48 -12z m-16
-96 c-4 -25 -8 -47 -9 -49 -1 -1 -10 12 -18 31 -20 42 -13 77 14 70 17 -5 19
-11 13 -52z"/>
<path d="M1400 2297 c0 -7 4 -17 9 -22 13 -15 -1 -188 -16 -193 -9 -2 -13 9
-13 40 0 24 -3 73 -7 111 -5 62 -8 67 -29 67 -31 0 -45 -47 -20 -65 15 -12 15
-13 -4 -18 -21 -5 -27 -31 -10 -42 6 -3 10 -26 10 -51 0 -24 -4 -44 -10 -44
-5 0 -10 -8 -10 -18 0 -17 12 -20 132 -25 80 -3 134 -10 136 -16 2 -6 14 -11
27 -11 13 0 26 -4 29 -9 3 -5 15 -7 25 -4 11 3 30 -2 43 -11 47 -33 98 -8 98
50 0 16 4 46 9 66 10 43 1 54 -46 64 -25 5 -34 1 -47 -17 -9 -13 -16 -36 -16
-51 0 -16 -4 -28 -10 -28 -5 0 -10 24 -10 54 0 62 -14 79 -62 74 -29 -3 -33
-7 -36 -35 -2 -25 1 -33 12 -33 9 0 16 5 16 11 0 5 5 7 10 4 16 -10 1 -25 -25
-25 -15 0 -26 -7 -30 -20 -9 -28 -22 -25 -40 10 -13 24 -13 33 -3 50 7 11 18
20 25 20 7 0 13 5 13 10 0 6 0 13 0 18 1 4 -16 9 -37 12 -38 5 -38 5 -35 48
l2 42 -40 0 c-26 0 -40 -4 -40 -13z"/>
<path d="M1915 2132 c8 -50 -38 -162 -66 -162 -34 0 -21 -36 24 -66 23 -16 44
-32 45 -36 2 -5 12 -8 22 -8 10 0 21 -8 24 -17 7 -20 70 -66 91 -66 7 0 16
-13 19 -29 3 -16 12 -28 21 -28 8 0 15 -7 15 -15 0 -8 13 -21 29 -30 16 -8 32
-23 35 -33 3 -10 21 -33 39 -53 17 -19 39 -45 48 -58 18 -28 44 -20 35 12 -3
12 5 34 20 56 32 47 31 91 -1 121 -14 13 -25 29 -25 36 0 12 -22 24 -46 24 -8
0 -14 -10 -14 -22 0 -13 -9 -34 -20 -48 -15 -20 -21 -22 -31 -13 -10 10 -8 21
9 52 27 49 28 81 1 115 -29 37 -79 30 -79 -12 0 -14 -27 -41 -42 -42 -13 0 -9
51 9 108 12 38 24 57 40 63 13 5 23 13 23 18 0 10 -61 61 -72 61 -3 0 -17 -18
-32 -40 -14 -22 -31 -40 -36 -40 -6 0 -10 31 -10 71 0 64 -3 74 -26 95 -39 37
-57 32 -49 -14z m11 -199 c-11 -11 -19 6 -11 24 8 17 8 17 12 0 3 -10 2 -21
-1 -24z m74 -42 c-10 -20 -30 -29 -30 -14 0 10 33 44 37 39 3 -2 0 -14 -7 -25z
m160 -71 c0 -5 -7 -7 -15 -4 -8 4 -15 8 -15 10 0 2 7 4 15 4 8 0 15 -4 15 -10z
m120 -145 c0 -14 -32 -66 -37 -61 -8 7 17 66 28 66 5 0 9 -2 9 -5z"/>
<path d="M918 2102 c-37 -27 -46 -49 -29 -67 5 -6 11 -26 15 -46 5 -28 3 -38
-9 -43 -10 -3 -15 1 -15 12 0 9 -9 32 -20 50 -26 43 -55 42 -81 -2 -13 -22
-26 -33 -35 -29 -8 3 -29 -11 -52 -35 -20 -22 -49 -47 -63 -56 -30 -19 -29
-56 0 -56 9 0 31 -15 49 -33 28 -29 32 -40 32 -86 0 -51 1 -52 27 -49 l26 3
-2 85 c-1 46 -6 102 -10 125 -4 22 -6 46 -3 53 8 24 32 -8 32 -42 0 -66 37
-72 97 -17 23 21 44 36 46 34 5 -4 127 63 142 78 7 7 4 15 -7 23 -10 7 -21 28
-25 47 -15 81 -52 97 -115 51z m61 -97 c-1 -29 -1 -29 -9 -5 -4 14 -8 34 -9
45 -1 16 1 17 9 5 5 -8 9 -28 9 -45z"/>
<path d="M1428 1979 c-10 -7 -10 -16 4 -53 16 -43 16 -45 -5 -64 -17 -15 -43
-21 -110 -26 -90 -6 -318 -73 -325 -96 -2 -6 -22 -20 -43 -31 -60 -30 -202
-161 -260 -240 -29 -38 -64 -75 -78 -82 -14 -7 -27 -21 -30 -32 -2 -11 -10
-25 -19 -31 -10 -7 -13 -20 -9 -40 3 -19 -3 -44 -19 -75 -27 -54 -67 -197 -89
-321 -9 -46 -18 -93 -20 -105 -5 -23 -8 -23 -165 -23 -153 0 -160 -1 -160 -20
0 -20 7 -20 299 -20 207 0 302 -3 307 -11 4 -6 19 -9 36 -5 17 3 461 9 987 12
526 4 960 10 965 14 25 23 -13 30 -164 30 -182 0 -164 -11 -176 110 -11 123
-80 331 -147 445 -23 39 -49 82 -57 97 -50 87 -187 223 -304 300 -42 28 -119
68 -131 68 -9 0 -15 9 -15 21 0 12 -10 37 -21 56 -19 31 -20 39 -10 75 7 22
11 41 9 43 -8 7 -238 11 -250 4z m227 -171 c3 -13 4 -167 3 -343 l-3 -320
-100 0 -100 0 -1 280 c0 154 1 308 4 343 l4 62 94 0 c89 0 94 -1 99 -22z
m-247 -47 l3 -34 -51 6 c-142 17 -279 -65 -356 -214 l-15 -31 -25 27 c-13 14
-24 33 -24 41 0 7 -9 14 -20 14 -31 0 -16 -48 26 -85 l34 -30 -8 -83 c-17
-177 16 -291 114 -389 l52 -52 -56 -7 c-46 -5 -63 -3 -92 12 l-35 19 -2 95
c-2 83 -5 97 -23 112 -18 14 -19 20 -8 37 10 16 10 35 1 88 -7 38 -10 78 -7
90 7 27 -6 34 -74 39 -61 4 -122 21 -122 33 0 15 155 167 203 200 75 51 247
130 307 140 30 5 82 8 115 8 l60 -2 3 -34z m343 -44 c19 -12 46 -27 61 -34 40
-18 145 -100 193 -152 127 -137 224 -309 272 -487 39 -141 56 -224 51 -255
l-3 -24 -397 -3 c-234 -2 -398 1 -398 6 0 5 32 12 71 15 39 3 77 11 84 17 16
14 107 17 148 5 21 -6 36 -2 66 19 46 32 91 46 149 46 23 0 50 4 60 9 9 5 30
13 47 18 35 10 47 43 16 43 -11 0 -43 -9 -71 -20 -28 -11 -71 -20 -95 -20 -45
0 -125 -26 -125 -40 0 -16 -32 -19 -58 -6 -30 16 -82 10 -161 -18 -55 -20
-151 -22 -151 -3 0 8 10 23 23 35 21 20 35 22 187 24 160 3 165 4 175 26 5 12
18 22 27 22 13 0 18 8 18 25 0 23 4 25 40 25 29 0 40 4 40 15 0 12 14 15 70
15 63 0 70 2 70 20 0 18 -7 20 -70 20 -38 0 -70 4 -70 9 0 6 -17 11 -37 13
-35 3 -38 6 -41 36 -2 19 -9 32 -17 32 -8 0 -20 12 -27 27 -7 15 -24 30 -38
34 -14 4 -19 7 -13 8 17 1 53 74 53 106 0 25 31 65 50 65 5 0 10 11 10 25 0
32 -8 32 -53 -6 -31 -26 -37 -37 -37 -70 0 -32 -7 -48 -41 -84 -37 -40 -46
-45 -85 -45 l-44 0 0 265 c0 146 4 265 9 265 4 0 23 -10 42 -23z m-373 -190
l3 -157 -183 2 -183 3 3 30 c2 17 17 60 34 97 53 116 163 190 273 185 l50 -2
3 -158z m-608 -152 c11 -10 15 -26 12 -50 -4 -34 -6 -35 -46 -35 -22 0 -47 4
-55 9 -23 15 -1 33 37 29 42 -3 52 14 26 43 -21 23 0 27 26 4z m610 -185 l0
-100 90 0 c50 0 90 -3 90 -8 0 -4 -14 -24 -31 -45 -33 -40 -133 -94 -192 -104
-77 -12 -204 49 -254 121 -36 55 -73 153 -73 198 l0 38 185 0 185 0 0 -100z
m-742 53 c2 -8 -5 -13 -17 -13 -12 0 -21 6 -21 16 0 18 31 15 38 -3z m222 -16
c0 -17 -20 -37 -37 -37 -13 0 -18 32 -6 43 11 12 43 7 43 -6z m1000 -177 l0
-110 -170 0 c-93 0 -170 3 -170 8 1 4 19 19 40 34 22 16 52 46 68 68 20 29 34
39 55 40 24 0 27 4 27 35 l0 35 75 0 75 0 0 -110z m-1319 -17 c-26 -32 -27
-78 -2 -104 10 -11 21 -34 25 -50 3 -16 24 -49 47 -74 l42 -46 -94 3 -94 3 3
35 c9 112 29 202 70 310 l17 45 3 -48 c2 -36 -2 -54 -17 -74z m204 59 c-3 -3
-11 0 -18 7 -9 10 -8 11 6 5 10 -3 15 -9 12 -12z m-77 -15 c10 -8 18 -47 9
-47 -2 0 -18 7 -35 16 -38 19 -45 55 -9 47 12 -3 28 -10 35 -16z m239 -71 c-4
-9 -11 -16 -17 -16 -11 0 -14 33 -3 44 11 10 26 -11 20 -28z m-163 8 c3 -9 6
-23 6 -31 0 -13 -3 -13 -15 -3 -16 13 -21 50 -6 50 5 0 12 -7 15 -16z m-148
-62 c-9 -8 -26 10 -26 26 1 15 2 15 15 -2 8 -11 13 -21 11 -24z m399 -59 c26
-10 55 -12 88 -8 46 7 50 6 81 -28 25 -27 44 -37 91 -46 80 -16 87 -19 83 -34
-6 -16 -428 -23 -428 -7 0 5 4 10 9 10 4 0 8 32 7 70 -2 60 0 70 13 64 9 -4
34 -13 56 -21z m-234 -4 c21 -18 21 -20 4 -14 -11 4 -28 10 -37 12 -10 3 -18
9 -18 14 0 16 27 10 51 -12z m521 3 c76 -4 99 -16 82 -44 -15 -24 -194 24
-194 53 0 7 6 8 18 3 9 -4 52 -9 94 -12z m138 -2 c0 -5 -4 -10 -10 -10 -5 0
-10 5 -10 10 0 6 5 10 10 10 6 0 10 -4 10 -10z m-770 -30 c0 -17 -15 -11 -28
11 -12 19 -11 19 8 9 11 -6 20 -15 20 -20z m837 24 c-3 -3 -12 -4 -19 -1 -8 3
-5 6 6 6 11 1 17 -2 13 -5z m-607 -43 c0 -24 -25 -45 -45 -37 -21 8 -19 27 5
33 11 3 20 9 20 14 0 5 5 9 10 9 6 0 10 -8 10 -19z m-170 -25 c0 -27 -15 -42
-25 -26 -8 13 3 50 16 50 5 0 9 -11 9 -24z"/>
<path d="M520 1880 c-23 -33 -23 -65 0 -65 14 0 80 -117 80 -142 0 -22 -14
-14 -38 22 -27 43 -62 47 -86 10 -20 -30 -21 -91 -2 -102 19 -11 25 -72 7 -82
-7 -5 -22 -6 -33 -3 -18 4 -20 11 -14 48 5 38 3 44 -13 44 -11 0 -23 -12 -31
-30 -7 -16 -15 -30 -18 -30 -3 0 -18 11 -32 25 -32 30 -44 22 -55 -37 -6 -34
-5 -38 13 -38 21 0 85 -70 96 -107 12 -38 -3 -46 -31 -18 -42 42 -69 34 -98
-29 -31 -68 -33 -103 -4 -108 11 -2 28 -16 37 -31 15 -24 15 -29 3 -37 -10 -5
-22 -3 -35 6 -29 20 -63 17 -76 -5 -5 -11 -10 -38 -10 -61 0 -33 7 -48 34 -75
47 -50 86 -43 86 16 0 15 7 32 15 39 8 7 15 23 15 36 0 13 14 46 30 72 17 27
30 54 30 59 0 6 12 32 27 59 14 27 40 74 56 104 16 30 33 59 38 64 5 6 9 18 9
28 0 10 7 18 15 18 8 0 19 9 25 21 7 11 20 29 31 40 10 10 19 24 19 29 0 6 16
24 35 41 35 31 47 69 21 69 -17 0 -53 56 -81 124 -11 27 -25 51 -32 53 -6 2
-21 -10 -33 -27z m-188 -577 c10 -9 18 -23 18 -31 0 -12 -6 -10 -25 8 -38 35
-31 58 7 23z"/>
<path d="M2450 1568 l0 -31 -23 21 c-14 13 -36 22 -54 22 -59 0 -97 -105 -53
-145 11 -10 20 -24 20 -31 0 -19 31 -54 47 -54 9 0 11 -8 7 -24 -5 -22 4 -47
37 -106 14 -24 25 -52 40 -100 17 -54 40 -62 56 -21 6 18 35 47 71 73 34 24
61 49 61 56 1 24 -33 73 -49 70 -8 -2 -16 -12 -18 -22 -4 -19 -52 -69 -83 -86
-13 -7 -18 -4 -23 13 -4 16 3 30 24 52 23 24 30 40 30 72 0 35 -5 44 -32 62
-32 20 -34 20 -48 3 -22 -26 -50 -35 -50 -16 0 19 77 123 96 131 20 7 17 36
-7 67 -28 36 -49 34 -49 -6z m-50 -66 c0 -11 -9 -27 -20 -37 -19 -17 -20 -17
-20 -1 0 23 18 56 30 56 6 0 10 -8 10 -18z m84 -158 c3 -8 2 -12 -4 -9 -6 3
-10 10 -10 16 0 14 7 11 14 -7z"/>
<path d="M2650 1154 c0 -11 -6 -14 -20 -9 -28 9 -37 -20 -15 -45 20 -22 55
-26 73 -8 17 17 15 65 -4 72 -25 10 -34 7 -34 -10z"/>
<path d="M86 1034 c-9 -66 -8 -104 3 -104 5 0 11 6 14 13 3 8 27 0 80 -28 42
-22 77 -44 77 -48 0 -4 -7 -19 -16 -32 -13 -20 -14 -28 -4 -40 24 -29 47 -18
58 27 7 27 8 46 2 52 -6 6 -10 19 -10 29 0 24 -51 74 -113 109 -32 19 -47 34
-47 48 0 13 -7 20 -19 20 -14 0 -20 -10 -25 -46z"/>
<path d="M2584 1006 c-56 -31 -62 -50 -33 -118 9 -22 18 -28 41 -28 16 0 31 6
34 14 3 8 16 17 30 20 20 5 24 13 24 42 0 69 -43 100 -96 70z"/>
<path d="M95 654 c-12 -31 -15 -147 -3 -161 13 -16 52 -17 79 -3 11 6 19 7 19
1 0 -5 36 -10 80 -10 53 -1 80 3 80 10 0 8 4 8 14 0 9 -7 62 -11 155 -10 l141
1 0 56 c0 66 18 60 23 -8 l4 -45 42 -3 c23 -2 49 2 57 9 10 8 14 8 14 0 0 -6
14 -11 30 -11 33 0 35 6 21 60 -6 19 -15 54 -21 78 l-11 42 -73 -1 c-41 -1
-78 1 -84 4 -5 4 -23 2 -40 -3 -19 -5 -34 -5 -37 1 -10 14 -51 10 -65 -6 -9
-11 -16 -13 -24 -5 -5 5 -29 10 -52 10 -39 0 -43 -2 -47 -27 l-4 -28 -2 28 -1
27 -99 0 c-54 0 -118 3 -143 6 -38 5 -46 3 -53 -12z"/>
<path d="M1440 662 c-43 -2 -78 -8 -82 -15 -6 -9 -8 -9 -8 1 0 17 -156 17
-163 0 -4 -10 -6 -10 -6 0 -1 6 -12 12 -26 12 -19 0 -26 -7 -31 -27 -23 -107
-47 -121 -52 -30 l-3 57 -49 0 -50 0 0 -60 c0 -47 -3 -60 -15 -60 -12 0 -15
13 -15 60 l0 60 -30 0 -30 0 0 -90 0 -90 135 0 c98 0 135 3 135 12 0 9 3 9 12
0 17 -17 214 -17 221 1 4 10 6 10 6 0 1 -9 19 -13 56 -13 l55 0 2 63 1 62 6
-60 c6 -56 8 -60 34 -63 l27 -3 0 90 c0 72 -3 91 -14 91 -8 0 -20 1 -28 3 -7
2 -47 1 -88 -1z m10 -98 c0 -14 -4 -22 -10 -19 -5 3 -10 17 -10 31 0 14 4 22
10 19 6 -3 10 -17 10 -31z"/>
<path d="M1617 652 c-19 -21 -21 -45 -7 -73 7 -13 7 -19 0 -19 -13 0 -13 -36
0 -61 9 -15 22 -19 68 -19 32 0 63 5 70 12 9 9 12 9 12 0 0 -8 19 -12 55 -12
l54 0 4 58 3 57 2 -56 2 -56 130 -1 130 -2 0 91 0 91 -65 -4 c-36 -1 -65 0
-65 5 0 10 -48 9 -54 -2 -3 -5 -19 -6 -36 -2 -16 3 -68 5 -114 3 l-84 -3 -7
-32 c-8 -31 -8 -31 -12 -7 -3 14 -10 31 -15 38 -15 18 -52 15 -71 -6z m193
-82 c0 -11 -2 -20 -4 -20 -2 0 -6 9 -9 20 -3 11 -1 20 4 20 5 0 9 -9 9 -20z"/>
<path d="M2299 662 l-106 -3 -11 -63 c-18 -98 -16 -116 12 -116 13 0 27 6 29
13 4 9 6 9 6 -1 1 -9 52 -12 226 -12 242 1 248 2 261 56 7 28 -3 94 -18 112
-6 6 -28 12 -49 12 -35 0 -38 -2 -42 -32 l-3 -33 -8 33 c-7 27 -13 32 -37 32
-22 0 -29 -5 -29 -19 0 -11 -4 -23 -10 -26 -6 -4 -10 5 -10 19 0 24 -4 26 -39
26 -22 0 -45 1 -53 3 -7 1 -61 1 -119 -1z"/>
<path d="M1268 433 c-8 -10 -18 -25 -20 -33 -4 -10 -8 -6 -13 13 -6 21 -13 27
-35 27 -22 0 -30 -6 -33 -22 l-4 -23 -2 23 c-1 21 -4 22 -115 22 l-115 0 -4
-32 -3 -33 -8 33 c-7 27 -13 32 -37 32 -22 0 -29 -5 -29 -19 0 -11 -4 -23 -10
-26 -6 -3 -10 5 -10 19 l0 25 -100 0 -100 0 0 -90 c0 -88 0 -89 25 -89 20 0
25 5 25 25 0 14 8 29 20 35 18 10 20 8 20 -24 l0 -35 235 -1 c167 0 235 3 235
11 0 8 4 8 13 1 6 -5 38 -10 70 -11 56 0 58 1 74 35 15 31 15 36 3 45 -8 5
-25 8 -37 6 -15 -3 -23 1 -23 9 0 20 66 18 74 -2 3 -9 6 -33 6 -55 0 -35 3
-39 25 -39 21 0 25 5 25 30 0 16 9 53 20 82 11 29 20 56 20 60 0 4 -24 7 -52
7 -29 -1 -69 2 -88 6 -28 5 -39 2 -52 -12z"/>
<path d="M1501 424 c-26 -33 -28 -109 -5 -142 18 -26 68 -30 82 -6 8 14 10 14
21 0 16 -19 67 -21 74 -3 4 9 7 9 15 -1 7 -10 46 -13 161 -11 83 1 155 -1 158
-5 8 -8 18 -7 -1037 -9 l-875 -2 -3 -27 -3 -28 1301 0 1301 0 -3 28 -3 27
-300 1 c-383 2 -359 1 -343 18 7 8 15 10 16 5 2 -5 26 -9 53 -9 48 0 49 1 49
29 0 23 -5 31 -22 34 l-23 4 23 2 c20 1 22 6 22 57 l0 55 -53 -2 c-29 -1 -58
0 -63 3 -5 3 -48 4 -97 1 l-87 -6 0 -58 c0 -46 -3 -59 -15 -59 -12 0 -15 13
-15 60 l0 60 -30 0 -30 0 0 -60 c0 -33 -4 -60 -10 -60 -6 0 -10 27 -10 60 l0
60 -30 0 c-17 0 -30 -5 -30 -12 -1 -8 -6 -6 -14 5 -18 23 -49 22 -71 -3 l-18
-20 -14 20 c-19 28 -48 25 -72 -6z m79 -64 c0 -5 -6 -10 -14 -10 -8 0 -17 -6
-19 -12 -3 -7 -6 -3 -6 10 -1 16 5 22 19 22 11 0 20 -4 20 -10z m67 -22 c-3
-7 -5 -2 -5 12 0 14 2 19 5 13 2 -7 2 -19 0 -25z"/>
</g>
</svg>
